<?xml version="1.0" encoding="UTF-8"?>
<svg id="Layer_1" data-name="Layer 1" xmlns="http://www.w3.org/2000/svg" xmlns:xlink="http://www.w3.org/1999/xlink" viewBox="0 0 832 831">
  <defs>
    <style>
      .cls-1 {
        fill: none;
      }

      .cls-2 {
        clip-path: url(#clippath);
      }

      .cls-3 {
        fill: #f5ef72;
      }

      .cls-4 {
        fill: #f5ec79;
      }

      .cls-5 {
        fill: #fe9503;
      }

      .cls-6 {
        fill: #fff;
      }

      .cls-7 {
        fill: #efc954;
      }

      .cls-8 {
        fill: #fd9703;
      }

      .cls-9 {
        fill: #ff135f;
      }

      .cls-10 {
        fill: #fbc52f;
      }

      .cls-11 {
        fill: #fcfafa;
      }
    </style>
    <clipPath id="clippath">
      <rect class="cls-1" width="831.57" height="830.82"/>
    </clipPath>
  </defs>
  <path class="cls-6" d="m95.06,150.35S170.49,51.81,305.75,22.06s129.91-14.1,129.91-14.1c0,0,96.92-1.6,192.54,59.9s156.99,149.01,171.93,194.35,26.88,111.15,22.05,164.08-4.84,91.49-20.66,136.93-65.24,112.58-65.24,112.58l-40.55,34.88h70.4s5.55.46,13.65,4.77,49.24,85.43,49.24,85.43c0,0-3.63,25.19-15.41,27.58s-183.93,1.49-183.93,1.49l-599.27.89s-35.17-14.29-26.15-43.78l40.67-61.88,9.88-13.89,71.19-.41-46.92-52.83-51.86-95.55L2.77,458.55l.28-94.56,17.93-80.06,44.32-92.85,29.76-40.74Z"/>
  <g class="cls-2">
    <g>
      <path class="cls-8" d="m827.34,785.91l-39.47-66.17c-5.36-8.98-15.05-14.49-25.51-14.49h-52.45c73.64-74.82,119.09-177.47,119.09-290.75C829,185.58,643.42,0,414.5,0S0,185.58,0,414.5c0,113.27,45.44,215.93,119.09,290.75h-53.07c-10.93,0-20.98,6-26.15,15.63l-35.62,66.17c-10.65,19.79,3.68,43.78,26.15,43.78h771.43c23.05,0,37.32-25.12,25.51-44.91h0Zm-30.7,39.84H35.59c-22.17,0-33.31-21.94-22.8-40.05l32.13-60.54c5.11-8.8,15.02-14.3,25.8-14.3h62.62c-.06-.06-.11-.11-.17-.17l-5.28-5.13C52.98,631.63,6.54,528.89,6.54,415.3,6.54,190.03,189.16,7.41,414.43,7.41s407.89,182.62,407.89,407.89c0,113.58-46.43,216.31-121.34,290.27l-5.25,5.1c-.07.07-.15.14-.22.21h62.19c10.32,0,19.88,5.03,25.17,13.25l35.94,60.54c11.65,18.11.58,41.09-22.17,41.09Z"/>
      <path class="cls-5" d="m797.51,780.88l-26.58-44.9c-5.09-6.1-14.28-9.83-24.21-9.83h-96.09c93.31-71.63,153.47-184.3,153.47-311.02,0-216.42-175.44-391.86-391.86-391.86S20.38,198.71,20.38,415.13c0,126.72,60.15,239.4,153.47,311.02h-96.16c-10.37,0-19.91,4.07-24.83,10.6l-23.92,44.9c-13.87,25.34-6.39,29.7,14.94,29.7h732.3c27.23,0,35.73-4.36,21.33-30.47Zm-385.04-36.35l-1.06-18.39c-170.23-.45-308.28-137.64-310.15-307.53l-32.88-2.01,32.83-1.55c.04-171.22,138.44-310.1,309.48-310.93l1.78-33.65,1.55,33.65c170.95.96,309.25,139.82,309.25,311v.51l19.18.96-19.22,1.68c-1.69,169.93-139.64,307.24-309.83,307.86l-.93,18.39h0Z"/>
      <path class="cls-7" d="m619.92,624.08l7.01,8c54.65-54.59,88.58-129.91,89.01-213.16l-10.62.93c-.68,79.7-33.16,151.81-85.4,204.23Z"/>
      <path class="cls-7" d="m414.19,710.24l-.53,10.62c83.11-.34,158.34-34.06,212.96-88.47l-7.94-7.07c-52.55,52.12-124.74,84.45-204.48,84.92h-.01Z"/>
      <path class="cls-7" d="m705.32,414.74l10.62.53c-.55-83.63-34.92-159.23-90.12-213.81l-6.98,8.02c52.86,52.51,85.79,125.03,86.48,205.26Z"/>
      <path class="cls-7" d="m204.86,624.04l-7.24,6.46,6.42-7.3c-51.76-52.38-83.9-124.16-84.54-203.46l-10.62-.65c.95,166.4,135.77,301.07,302.23,301.77l-.61-10.62c-80.34-.52-153-33.36-205.62-86.19h-.02Z"/>
      <path class="cls-7" d="m617.87,208.53l7.94-7.08c-54.38-53.77-128.97-87.13-211.36-87.67l.49,10.62c79.04.67,150.61,32.64,202.93,84.13Z"/>
      <path class="cls-7" d="m205.25,210.18l-6.98-8.02c-54.66,54.4-88.69,129.49-89.39,212.53l10.62-.5c.83-79.65,33.43-151.69,85.75-204.01Z"/>
      <path class="cls-7" d="m409.62,124.4l.56-10.62c-82.64.59-157.42,34.2-211.82,88.29l7.9,7.12c52.32-51.83,124.07-84.05,203.36-84.79Z"/>
      <path class="cls-10" d="m578.6,243.51l33.47-29.82c-50.81-49.83-120.17-80.78-196.78-81.55l2.06,44.75c62.52,1.26,119.18,26.37,161.25,66.62Z"/>
      <path class="cls-10" d="m652.82,412.1l44.76,2.25c-.79-77.74-32.67-148.03-83.82-199.02l-29.45,33.84c41.29,42.21,67.16,99.55,68.51,162.93Z"/>
      <path class="cls-10" d="m585.24,584.5l29.56,33.74c50.48-50.85,81.92-120.61,82.77-197.72l-44.8,3.91c-1.81,62.15-27.2,118.38-67.53,160.06h0Z"/>
      <path class="cls-10" d="m406.85,176.9l2.36-44.76c-76.84.84-146.39,32.07-197.19,82.24l33.29,30c42.03-40.62,98.81-66.06,161.54-67.49h0Z"/>
      <path class="cls-10" d="m239.8,249.89l-29.45-33.85c-50.62,50.82-82.18,120.62-83.1,197.79l44.75-2.11c1.44-62.87,27-119.77,67.8-161.83Z"/>
      <path class="cls-10" d="m172,422.95l-44.76-2.74c.77,76.8,31.87,146.32,81.92,197.16l29.61-33.7c-40.19-41.94-65.33-98.4-66.76-160.72h0Z"/>
      <path class="cls-10" d="m320.24,639.48l-.15.31.1-.33c-28.56-11.87-54.33-29.08-76.08-50.39l-33.47,29.82c51.1,51.15,121.53,82.96,199.39,83.6l-2.59-44.76c-30.84-.62-60.26-7.06-87.2-18.25Z"/>
      <path class="cls-10" d="m416.83,657.74l-2.25,44.76c77.29-.58,147.26-31.89,198.3-82.34l-33.49-29.81c-42.27,40.8-99.44,66.25-162.56,67.39Z"/>
      <path class="cls-4" d="m324.34,517.58l-73.94,65.89c20.7,20.18,45.14,36.54,72.21,47.91l28.5-95.49c-9.67-5.01-18.65-11.17-26.77-18.3h0Z"/>
      <path class="cls-4" d="m498.23,315.12l74.08-66.01c-20.69-19.67-45-35.56-71.83-46.57l-30.57,94.31c10.23,4.89,19.73,11.05,28.31,18.27h.01Z"/>
      <path class="cls-4" d="m531.93,357.9l94.16-31.29c-11.31-26.61-27.45-50.67-47.32-71.09l-65.12,74.85c7.17,8.34,13.32,17.58,18.28,27.53Z"/>
      <path class="cls-4" d="m367.54,543.03l-43.59,88.9c25.68,10.6,53.67,16.73,83.01,17.4l-5.73-99.03c-11.73-.97-23.03-3.46-33.7-7.27h.01Z"/>
      <path class="cls-4" d="m422.45,284.23c11.09.82,21.8,3.01,31.97,6.38l45.89-88.14c-25.56-10.47-53.39-16.51-82.56-17.17l4.54,98.92s.11.01.16.02h0Z"/>
      <path class="cls-3" d="m539.08,459.42l86.79,48.6-93.34-32.5c-4.91,10.11-11.06,19.5-18.25,27.99l65.41,74.65c38.43-39.96,62.68-93.66,64.65-153l-99.5,8.69c-1.09,8.81-3.04,17.36-5.76,25.55v.02Z"/>
      <path class="cls-4" d="m472.53,536.49l27.61,95.74c27.31-11.16,52.03-27.37,72.97-47.48l-74.06-65.93c-8.07,6.89-16.96,12.84-26.52,17.67Z"/>
      <path class="cls-4" d="m545.45,406.71l98.97,4.97c-.71-29.95-7.1-58.5-18.13-84.61l-88.37,44.79c3.99,11.01,6.57,22.7,7.53,34.85Z"/>
      <path class="cls-4" d="m292.74,476.44l-94.91,29.42c11.03,26.7,26.88,50.89,46.49,71.48l65.55-74.61c-6.69-8.02-12.45-16.84-17.13-26.29Z"/>
      <path class="cls-4" d="m422.23,550.41l-4.98,98.93c29.11-.6,56.9-6.56,82.43-16.93l-44.66-88.59c-10.41,3.51-21.4,5.76-32.79,6.59Z"/>
      <path class="cls-4" d="m286.5,372.33l-88.74-43.39c-10.51,25.5-16.62,53.27-17.36,82.38l98.9-4.66c.88-11.95,3.36-23.46,7.2-34.33Z"/>
      <path class="cls-4" d="m279.51,429.53l-99.11-6.07c.75,28.66,6.7,56.02,16.93,81.19l88.19-45.88c-3.05-9.34-5.1-19.13-6.01-29.24Z"/>
      <path class="cls-4" d="m310.28,330.91l-64.95-74.67c-19.84,20.58-35.91,44.8-47.11,71.58l94.88,29.05c4.71-9.34,10.49-18.05,17.19-25.96h-.01Z"/>
      <path class="cls-4" d="m352.26,297.83l-30.47-94.25c-26.24,11.14-50,26.97-70.24,46.43l73.34,66.1c8.29-7.17,17.48-13.32,27.36-18.28h.01Z"/>
      <path class="cls-4" d="m401.18,284.21l5.22-98.91c-29.64.75-57.9,7.07-83.78,17.93l45.4,87.93c10.52-3.66,21.63-6.05,33.16-6.95Z"/>
      <path class="cls-9" d="m402.51,244.73h18v114h98v18h-98v194h-18v-193h-99v-19h99v-114Z"/>
      <path class="cls-6" d="m118.01,593.07l-5.11-7.39c2.36-1.93,3.76-3.96,4.19-6.08.43-2.12-.03-4.4-1.39-6.84-1.44-2.59-3.07-4.23-4.9-4.93-1.82-.7-3.47-.65-4.93.17-.94.52-1.59,1.25-1.94,2.17-.35.92-.39,2.2-.11,3.85.2,1.12.81,3.59,1.84,7.4,1.33,4.9,1.7,8.65,1.11,11.25-.83,3.66-2.82,6.37-5.97,8.12-2.03,1.13-4.24,1.61-6.64,1.44-2.4-.17-4.67-1.07-6.79-2.72-2.12-1.65-4.04-4-5.74-7.06-2.78-4.99-3.78-9.36-2.99-13.1.78-3.74,2.97-6.69,6.55-8.85l4.82,7.83c-1.85,1.48-2.91,3.04-3.18,4.67-.27,1.63.23,3.57,1.49,5.83,1.3,2.33,2.79,3.89,4.49,4.68,1.09.51,2.15.47,3.18-.1.94-.52,1.52-1.37,1.75-2.54.29-1.49-.2-4.44-1.45-8.86s-1.91-7.84-1.96-10.26c-.06-2.42.48-4.63,1.6-6.64s2.94-3.71,5.45-5.11c2.28-1.27,4.77-1.82,7.46-1.66,2.69.16,5.17,1.13,7.42,2.9,2.26,1.78,4.35,4.39,6.27,7.85,2.8,5.03,3.79,9.54,2.96,13.52-.82,3.99-3.32,7.48-7.47,10.48v-.02Z"/>
      <path class="cls-6" d="m108.47,542.49l-8.04,3.38-3.38-8.04,8.04-3.38,3.38,8.04Z"/>
      <path class="cls-6" d="m100.04,522.07l-43.53,13.32-9.13-29.84,7.36-2.25,6.44,21.05,10.3-3.15-5.56-18.17,7.36-2.25,5.56,18.17,18.5-5.66,2.69,8.79h.01Z"/>
      <path class="cls-6" d="m90.15,487.3l-8.53,1.84-1.84-8.53,8.53-1.84,1.84,8.53Z"/>
      <path class="cls-6" d="m84.42,388.84l-37.6-4.05-1.45,13.43-7.66-.82,3.87-35.96,7.66.82-1.44,13.4,37.6,4.05-.98,9.14h0Z"/>
      <path class="cls-6" d="m88.52,356.43l-44.26-10.61,4.51-18.81c1.13-4.73,2.36-8.07,3.66-10.02,1.31-1.95,3.13-3.33,5.48-4.13,2.35-.8,4.82-.89,7.44-.26,3.32.8,5.83,2.43,7.53,4.9,1.7,2.47,2.36,5.72,1.99,9.74,1.59-1.66,3.21-2.96,4.86-3.9,1.65-.94,4.45-2.06,8.41-3.36l9.93-3.33-2.56,10.69-11.18,4.15c-3.99,1.47-6.54,2.52-7.64,3.15-1.1.63-1.93,1.38-2.49,2.25-.56.87-1.08,2.33-1.58,4.38l-.43,1.81,18.48,4.43-2.14,8.94v-.02Zm-23.41-15.06l1.58-6.61c1.03-4.29,1.49-7.01,1.38-8.16-.11-1.15-.53-2.14-1.27-2.96-.74-.82-1.78-1.38-3.1-1.7-1.49-.36-2.79-.25-3.89.33-1.11.58-1.96,1.56-2.54,2.95-.28.7-.85,2.86-1.71,6.49l-1.67,6.97,11.23,2.69h-.01Z"/>
      <path class="cls-6" d="m58.72,291.44l3.41-8.53,22.89,9.16c3.63,1.45,6.03,2.29,7.19,2.51,1.88.33,3.61.01,5.21-.94,1.6-.95,2.87-2.62,3.83-5.01.97-2.42,1.21-4.44.71-6.07s-1.42-2.85-2.76-3.68c-1.34-.83-3.68-1.91-7.03-3.25l-23.38-9.36,3.42-8.53,22.2,8.88c5.07,2.03,8.57,3.7,10.48,5,1.91,1.3,3.34,2.86,4.28,4.67.94,1.82,1.43,3.93,1.45,6.35.02,2.42-.63,5.3-1.97,8.64-1.62,4.04-3.31,6.91-5.07,8.62-1.77,1.71-3.64,2.88-5.61,3.49-1.97.62-3.85.79-5.64.52-2.64-.41-6.33-1.56-11.06-3.46l-22.54-9.02h0Z"/>
      <path class="cls-6" d="m120.46,262.56l-39.24-23.06,17.1-29.1,6.64,3.9-12.44,21.17,8.7,5.11,11.58-19.7,6.61,3.89-11.58,19.7,10.68,6.28,12.88-21.92,6.61,3.88-17.54,29.85Z"/>
      <path class="cls-6" d="m190,173.87l-28.08-35.35,7.2-5.72,23.31,29.34,17.89-14.22,4.77,6-25.09,19.93v.02Z"/>
      <path class="cls-6" d="m224.07,148.36l-24.53-38.34,7.74-4.95,24.53,38.34-7.74,4.95Z"/>
      <path class="cls-6" d="m254.29,111.93l-3.4-6.88,17.76-8.77,8.03,16.26c-.9,2.52-2.67,5.23-5.32,8.12-2.65,2.89-5.65,5.16-9.01,6.82-4.27,2.11-8.43,3.05-12.49,2.83s-7.71-1.61-10.95-4.15c-3.24-2.54-5.83-5.77-7.76-9.69-2.1-4.25-3.07-8.47-2.92-12.65.15-4.18,1.51-8,4.07-11.46,1.95-2.65,4.87-4.93,8.77-6.86,5.07-2.5,9.55-3.4,13.45-2.68s7.18,2.75,9.85,6.09l-7.43,5.58c-1.57-1.72-3.43-2.77-5.59-3.14-2.16-.38-4.43.02-6.8,1.2-3.6,1.78-5.9,4.33-6.9,7.67-1,3.33-.39,7.24,1.83,11.74,2.39,4.84,5.26,7.94,8.61,9.3,3.35,1.36,6.77,1.18,10.26-.55,1.73-.85,3.29-2.05,4.69-3.58,1.4-1.53,2.48-3.09,3.25-4.67l-2.56-5.18-9.44,4.66h0Z"/>
      <path class="cls-6" d="m291.09,113.63l-14.55-43.13,8.71-2.94,5.73,16.98,17.06-5.76-5.73-16.97,8.71-2.94,14.55,43.13-8.71,2.94-6.36-18.86-17.06,5.76,6.36,18.86-8.71,2.94h0Z"/>
      <path class="cls-6" d="m348.92,96.22l-8.35-36.88-13.17,2.98-1.7-7.51,35.28-7.98,1.7,7.51-13.14,2.97,8.35,36.88-8.96,2.03h0Z"/>
      <path class="cls-6" d="m455.13,44.85l17.94,3.05c3.55.6,6.17,1.2,7.87,1.79,1.69.59,3.15,1.48,4.37,2.65,1.22,1.17,2.15,2.62,2.81,4.34.65,1.72.81,3.54.48,5.48-.36,2.1-1.25,3.93-2.68,5.5-1.43,1.56-3.19,2.62-5.28,3.17,2.6,1.26,4.47,2.98,5.61,5.14,1.14,2.16,1.49,4.55,1.05,7.14-.35,2.04-1.16,3.94-2.44,5.71-1.28,1.77-2.83,3.09-4.67,3.96-1.84.87-3.98,1.24-6.44,1.1-1.54-.09-5.2-.61-10.98-1.55l-15.27-2.6,7.62-44.87h.01Zm4.76,26.84l-2.04,12,8.39,1.42c3.26.56,5.35.81,6.26.78,1.39-.02,2.59-.43,3.59-1.23,1.01-.81,1.65-2,1.92-3.6.23-1.35.1-2.54-.4-3.6-.49-1.05-1.32-1.89-2.48-2.53s-3.8-1.31-7.93-2.01l-7.32-1.24h.01Zm3.03-17.84l-1.76,10.38,5.94,1.01c3.53.6,5.73.92,6.61.96,1.58.08,2.89-.25,3.93-.99,1.04-.74,1.68-1.83,1.93-3.28.24-1.39.04-2.58-.57-3.58-.62-1-1.67-1.72-3.15-2.16-.88-.25-3.45-.74-7.72-1.47l-5.2-.88h0Z"/>
      <path class="cls-6" d="m534.07,114.27l-9.35-3.53-.06-11.08-17.02-6.43-7.17,8.35-9.12-3.45,32.67-36.32,9.09,3.43.97,49.02h-.01Zm-9.47-22.82l.1-18.02-11.72,13.63,11.62,4.39Z"/>
      <path class="cls-6" d="m542.02,118.36l21.3-40.22,13.03,6.9c4.94,2.62,8.05,4.52,9.34,5.72,1.99,1.82,3.22,4.16,3.7,7,.48,2.84-.12,5.87-1.82,9.07-1.31,2.47-2.86,4.31-4.64,5.52-1.79,1.21-3.63,1.93-5.52,2.16-1.89.23-3.63.12-5.22-.32-2.14-.64-5.05-1.94-8.73-3.89l-5.29-2.8-8.04,15.17-8.12-4.3h.01Zm25.82-29.13l-6.05,11.41,4.44,2.35c3.2,1.69,5.45,2.62,6.75,2.77,1.3.15,2.5-.06,3.58-.63,1.09-.57,1.95-1.45,2.58-2.64.77-1.46.98-2.9.63-4.3-.35-1.4-1.13-2.58-2.32-3.51-.87-.7-2.77-1.82-5.7-3.37l-3.92-2.08h.01Z"/>
      <path class="cls-6" d="m591.24,146.7l21.38-31.19-11.14-7.64,4.35-6.35,29.84,20.45-4.35,6.35-11.12-7.62-21.38,31.19-7.58-5.19Z"/>
      <path class="cls-6" d="m617.64,166.04l28.94-35.13,7.09,5.84-28.94,35.13-7.09-5.84Z"/>
      <path class="cls-6" d="m643.7,168.16l6.91,5.74c-1.75,2.5-2.55,4.82-2.39,6.98.16,2.16,1.22,4.23,3.19,6.22,2.08,2.1,4.1,3.25,6.04,3.43,1.95.18,3.51-.31,4.71-1.49.76-.76,1.19-1.63,1.28-2.61.09-.98-.22-2.23-.93-3.74-.49-1.03-1.75-3.23-3.77-6.62-2.6-4.36-3.97-7.87-4.1-10.53-.19-3.75,1-6.89,3.55-9.42,1.65-1.63,3.65-2.69,6.01-3.18,2.36-.49,4.78-.22,7.27.79,2.49,1.01,4.97,2.76,7.43,5.25,4.02,4.06,6.16,7.99,6.41,11.81.25,3.81-1.05,7.25-3.92,10.29l-6.76-6.24c1.38-1.93,1.99-3.71,1.8-5.35s-1.19-3.38-3.01-5.22c-1.88-1.9-3.74-3-5.58-3.3-1.18-.2-2.2.12-3.03.95-.76.76-1.1,1.73-1,2.92.12,1.51,1.39,4.22,3.78,8.14,2.4,3.92,3.95,7.04,4.66,9.35.71,2.32.79,4.59.26,6.83-.54,2.24-1.83,4.37-3.87,6.39-1.85,1.84-4.1,3.04-6.73,3.61-2.64.57-5.28.31-7.93-.79-2.65-1.1-5.37-3.06-8.15-5.86-4.05-4.09-6.22-8.16-6.5-12.23-.28-4.06,1.17-8.1,4.37-12.11h0Z"/>
      <path class="cls-6" d="m672.73,222.02l30.42-22.47-8.02-10.86,6.19-4.58,21.49,29.09-6.19,4.58-8.01-10.84-30.42,22.47-5.46-7.39Z"/>
      <path class="cls-6" d="m743.63,332.59l-.1,9.35c-5.15.15-9.34-.95-12.58-3.28-3.24-2.33-5.57-5.83-7-10.51-1.77-5.78-1.25-11.13,1.56-16.06s7.64-8.44,14.49-10.54c7.24-2.22,13.44-2.07,18.6.45,5.15,2.52,8.66,6.82,10.52,12.92,1.63,5.32,1.38,10.13-.75,14.42-1.26,2.55-3.48,4.85-6.66,6.91l-4.74-8.06c2.1-1.21,3.55-2.82,4.36-4.86.81-2.03.85-4.22.14-6.55-.99-3.23-2.94-5.49-5.88-6.79-2.93-1.3-6.99-1.16-12.17.43-5.5,1.68-9.12,3.87-10.85,6.56s-2.11,5.62-1.14,8.79c.71,2.33,2.07,4.12,4.07,5.35,2,1.23,4.7,1.72,8.12,1.48h.01Z"/>
      <path class="cls-6" d="m732.82,357.43l45.05-6.53,1.32,9.1-17.73,2.57,2.58,17.82,17.73-2.57,1.32,9.1-45.05,6.53-1.32-9.09,19.7-2.85-2.58-17.82-19.7,2.85-1.32-9.09v-.02Z"/>
      <path class="cls-6" d="m784.34,407.77l-.27,9.19-24.64-.73c-3.91-.12-6.45-.08-7.61.12-1.87.34-3.4,1.23-4.57,2.68s-1.79,3.45-1.87,6.02c-.08,2.61.4,4.59,1.42,5.94,1.03,1.36,2.31,2.19,3.86,2.51,1.54.31,4.12.53,7.71.63l25.17.74-.27,9.19-23.9-.7c-5.46-.16-9.31-.52-11.55-1.09-2.24-.56-4.12-1.54-5.63-2.92s-2.7-3.2-3.55-5.46c-.85-2.26-1.23-5.19-1.12-8.79.13-4.34.73-7.62,1.8-9.84,1.07-2.21,2.43-3.95,4.07-5.21,1.64-1.26,3.35-2.07,5.12-2.43,2.62-.52,6.48-.71,11.57-.56l24.27.71h0Z"/>
      <path class="cls-6" d="m736.21,455.99l44.64,8.9-3.78,18.97c-.95,4.77-2.04,8.16-3.28,10.16-1.24,2-3,3.45-5.31,4.34-2.31.89-4.78,1.07-7.42.55-3.35-.67-5.92-2.2-7.71-4.61-1.79-2.41-2.58-5.62-2.37-9.65-1.53,1.72-3.1,3.08-4.71,4.08-1.61,1-4.37,2.23-8.27,3.69l-9.8,3.71,2.15-10.78,11.01-4.58c3.93-1.62,6.43-2.77,7.51-3.44,1.07-.67,1.87-1.45,2.4-2.34.52-.89.99-2.37,1.41-4.44l.36-1.83-18.64-3.71,1.8-9.01h.01Zm23.97,14.14l-1.33,6.67c-.86,4.32-1.22,7.06-1.07,8.21.15,1.15.61,2.12,1.38,2.9.77.79,1.83,1.32,3.17,1.58,1.5.3,2.79.14,3.88-.48,1.08-.62,1.89-1.63,2.43-3.05.25-.71.74-2.89,1.46-6.55l1.4-7.03-11.33-2.26h.01Z"/>
      <path class="cls-6" d="m731.6,537.57l-5.62,7.47c-4.23-2.93-6.96-6.3-8.19-10.1-1.22-3.8-1.03-8,.59-12.61,2-5.7,5.59-9.71,10.78-12.01,5.19-2.31,11.16-2.27,17.92.1,7.15,2.51,12.05,6.3,14.71,11.38,2.66,5.08,2.93,10.63.82,16.64-1.84,5.25-4.9,8.98-9.15,11.17-2.52,1.31-5.67,1.85-9.45,1.62l.96-9.3c2.41.27,4.53-.17,6.39-1.33,1.85-1.16,3.19-2.89,4-5.2,1.12-3.18.88-6.17-.71-8.95-1.59-2.78-4.94-5.07-10.06-6.87-5.43-1.91-9.64-2.29-12.63-1.14-2.99,1.14-5.03,3.28-6.13,6.4-.81,2.3-.77,4.54.11,6.72.88,2.17,2.77,4.17,5.66,6h0Z"/>
      <path class="cls-6" d="m708.02,551.59l41.04,19.69-3.97,8.29-16.15-7.75-7.79,16.24,16.15,7.75-3.97,8.29-41.04-19.69,3.98-8.29,17.94,8.61,7.79-16.24-17.94-8.61,3.97-8.29h-.01Z"/>
      <path class="cls-11" d="m154.57,789.99v-5.12h61.45v5.12h-20.75c5.93,3.23,12.84,5.57,20.75,7.01-1.44,2.16-2.52,3.86-3.23,5.12-7.91-1.62-15.27-4.14-22.1-7.55l3.5-4.58h-18.33l3.23,4.31c-5.39,3.23-12.85,5.93-22.37,8.09-1.62-3.42-2.61-5.3-2.96-5.66,4.67-.72,8.71-1.71,12.13-2.96,2.51-.72,5.3-1.98,8.36-3.77h-19.68Zm28.03-45.02v-5.39h5.93v5.39h25.34v5.39h-25.34v3.77h16.98v27.76h-40.43v-27.76h17.52v-3.77h-26.41v-5.39h26.41Zm16.98,17.52v-3.77h-28.84v3.77h28.84Zm0,7.28v-3.5h-28.84v3.5h28.84Zm0,7.82v-3.77h-28.84v3.77h28.84Z"/>
      <path class="cls-11" d="m294.2,762.5v-22.1h6.74v22.1h26.95v5.93h-19.68v24.8c0,.54.18.99.54,1.35.18.18,1.35.27,3.5.27h5.12c2.51,0,3.95-.18,4.31-.54.54-.9,1.08-3.05,1.62-6.47,1.98.72,4.13,1.53,6.47,2.43-1.08,3.6-2.07,6.11-2.96,7.55-.9,1.25-1.62,1.97-2.16,2.16-1.08.36-3.06.54-5.93.54h-5.39c-5.57,0-8.81-.36-9.7-1.08-1.44-.9-2.16-2.79-2.16-5.66v-25.34h-8.36c-.54,7.55-1.53,13.21-2.96,16.98-1.26,3.6-3.23,6.56-5.93,8.89-2.34,2.33-7.1,5.03-14.29,8.09-.72-1.98-1.89-4.04-3.5-6.2,5.21-1.44,9.07-3.14,11.59-5.12,2.16-1.44,3.95-3.41,5.39-5.93,1.25-1.98,2.16-4.49,2.7-7.55.36-1.98.63-5.03.81-9.16h-18.87v-5.93h26.15Zm-5.93-5.4l-5.12,3.5c-2.34-3.59-5.48-7.64-9.43-12.13l4.85-3.5c3.05,3.23,6.29,7.28,9.7,12.13Zm22.1,3.77c-.36-.54-.99-1.17-1.89-1.89-.9-.72-1.8-1.35-2.7-1.89,3.23-3.77,6.74-8.17,10.51-13.21l5.66,4.85c-3.6,3.6-7.46,7.64-11.59,12.13h.01Z"/>
      <path class="cls-11" d="m388.28,777.05c1.98,1.26,3.86,2.34,5.66,3.23l-9.16,21.56-6.47-3.23c3.77-7.18,7.1-14.37,9.97-21.56Zm2.43-14.29l-2.7,5.66-8.89-5.12,2.43-5.12c.54.18,2.02.85,4.45,2.02s4,2.02,4.72,2.56h-.01Zm-7.82-16.17l3.5-5.12c3.59,2.16,6.47,4.04,8.62,5.66l-3.77,5.39c-.54-.54-1.8-1.52-3.77-2.96-1.98-1.44-3.5-2.43-4.58-2.96h0Zm19.14,28.83h25.61l1.08-.81,4.31,4.58c-3.42,5.21-6.74,8.99-9.97,11.32,2.7,1.26,5.39,2.34,8.09,3.23,3.23.9,6.83,1.62,10.78,2.16-1.26,2.33-1.89,3.32-1.89,2.96l-1.08,3.23c-5.57-1.08-9.61-2.25-12.13-3.5-2.7-.9-5.66-2.43-8.89-4.58-3.95,2.16-7.19,3.68-9.7,4.58-2.88,1.08-7.37,2.16-13.48,3.23-.54-2.16-1.44-4.04-2.7-5.66,5.21-.9,9.25-1.71,12.13-2.43,2.33-.54,5.21-1.79,8.62-3.77-1.08-1.08-2.16-2.33-3.23-3.77-.36-.36-1.53-2.33-3.5-5.93h-4.04v-4.85h-.01Zm-7.82,3.51v-12.94h46.09v12.94h-5.93v-7.82h-33.96v7.82h-6.2Zm5.39-31.8v-4.58h35.58v20.48h-35.58v-4.58h29.38v-3.23h-29.38v-4.31h29.38v-3.77h-29.38Zm18.06,39.88c3.59-2.16,6.02-4.4,7.28-6.74h-12.67c1.44,2.7,3.23,4.94,5.39,6.74Z"/>
      <path class="cls-11" d="m505.81,755.76v46.63h-6.47v-33.96c-2.34,3.77-3.95,6.2-4.85,7.28,0-.18-1.17-2.06-3.5-5.66,3.95-6.47,6.74-11.5,8.36-15.09,1.44-3.05,3.23-8.44,5.39-16.17l6.74,2.7c-.54,1.26-1.71,4.31-3.5,9.16-.36.9-1.08,2.61-2.16,5.12h-.01Zm4.04,1.34v-5.66h45.55v5.66h-45.55Zm5.39,45.28v-22.1h34.5v21.83h-7.28v-2.96h-20.75v3.23h-6.47Zm.81-35.85v-5.39h32.61v5.39h-32.61Zm0,9.7v-5.66h32.61v5.66h-32.61Zm.27-28.57v-5.66h32.34v5.66h-32.34Zm26.14,46.09v-8.09h-20.75v8.09h20.75Z"/>
      <path class="cls-11" d="m633.04,738.78l7.55,1.35-1.35,1.62c6.83,3.95,12.04,6.74,15.63,8.36,3.59,1.62,8.17,3.23,13.75,4.85-1.8,2.52-2.96,4.41-3.5,5.66-4.31-1.44-7.1-2.51-8.36-3.23-1.26-.54-3.06-1.44-5.39-2.7v2.7h-30.73v-2.43c-4.49,2.34-8.81,4.49-12.94,6.47-1.44-2.51-2.61-4.31-3.5-5.39,7.18-3.05,11.68-5.12,13.48-6.2,4.49-2.7,7.37-4.49,8.62-5.39.54-.54,1.35-1.25,2.43-2.16,1.08-.9,2.51-2.06,4.31-3.5h0Zm-22.37,38.8v-16.98h51.48v16.98h-51.48Zm3.5,24.8v-21.83h43.39v21.56h-6.2v-2.43h-31.27v2.7h-5.93.01Zm5.66-34.5l4.04-2.96h-7.28v8.36h7.28c-1.8-2.7-3.15-4.49-4.04-5.39h0Zm31.54,20.74v-3.77h-31.27v3.77h31.27Zm0,7.01v-3.5h-31.27v3.5h31.27Zm-15.9-50.67c-4.14,3.42-8.09,6.2-11.86,8.36h24.8c-3.6-1.98-7.91-4.76-12.94-8.36Zm-11.05,19.95l4.31,5.93-3.5,2.43h7.82v-8.36h-8.63Zm18.06,5.93l4.04-5.93h-8.09v8.36h6.74l-2.7-2.43h.01Zm13.48,2.43v-8.36h-8.89l4.04,2.96c-.18.54-.63,1.26-1.35,2.16-.72.9-1.53,1.98-2.43,3.23h8.63Z"/>
    </g>
  </g>
</svg>